<svg xmlns="http://www.w3.org/2000/svg" width="900" height="520" viewBox="0 0 900 520">
<rect width="100%" height="100%" fill="white"/>
<line x1="70" y1="462" x2="876" y2="462" stroke="#222"/>
<line x1="70" y1="24" x2="70" y2="462" stroke="#222"/>
<text x="450.0" y="504" text-anchor="middle" font-family="sans-serif" font-size="16">Radius (kpc)</text>
<text x="18" y="260.0" transform="rotate(-90 18 260.0)" text-anchor="middle" font-family="sans-serif" font-size="16">v_rot (km/s)</text>
<line x1="89.3" y1="462" x2="89.3" y2="467" stroke="#222"/>
<text x="89.3" y="484" text-anchor="middle" font-family="sans-serif" font-size="12">5</text>
<line x1="208.1" y1="462" x2="208.1" y2="467" stroke="#222"/>
<text x="208.1" y="484" text-anchor="middle" font-family="sans-serif" font-size="12">10</text>
<line x1="327.0" y1="462" x2="327.0" y2="467" stroke="#222"/>
<text x="327.0" y="484" text-anchor="middle" font-family="sans-serif" font-size="12">15</text>
<line x1="445.9" y1="462" x2="445.9" y2="467" stroke="#222"/>
<text x="445.9" y="484" text-anchor="middle" font-family="sans-serif" font-size="12">20</text>
<line x1="564.8" y1="462" x2="564.8" y2="467" stroke="#222"/>
<text x="564.8" y="484" text-anchor="middle" font-family="sans-serif" font-size="12">25</text>
<line x1="683.7" y1="462" x2="683.7" y2="467" stroke="#222"/>
<text x="683.7" y="484" text-anchor="middle" font-family="sans-serif" font-size="12">30</text>
<line x1="802.5" y1="462" x2="802.5" y2="467" stroke="#222"/>
<text x="802.5" y="484" text-anchor="middle" font-family="sans-serif" font-size="12">35</text>
<line x1="65" y1="378.6" x2="70" y2="378.6" stroke="#222"/>
<text x="60" y="382.6" text-anchor="end" font-family="sans-serif" font-size="12">200</text>
<line x1="70" y1="378.6" x2="876" y2="378.6" stroke="#eee"/>
<line x1="65" y1="295.1" x2="70" y2="295.1" stroke="#222"/>
<text x="60" y="299.1" text-anchor="end" font-family="sans-serif" font-size="12">220</text>
<line x1="70" y1="295.1" x2="876" y2="295.1" stroke="#eee"/>
<line x1="65" y1="211.7" x2="70" y2="211.7" stroke="#222"/>
<text x="60" y="215.7" text-anchor="end" font-family="sans-serif" font-size="12">240</text>
<line x1="70" y1="211.7" x2="876" y2="211.7" stroke="#eee"/>
<line x1="65" y1="128.3" x2="70" y2="128.3" stroke="#222"/>
<text x="60" y="132.3" text-anchor="end" font-family="sans-serif" font-size="12">260</text>
<line x1="70" y1="128.3" x2="876" y2="128.3" stroke="#eee"/>
<line x1="65" y1="44.9" x2="70" y2="44.9" stroke="#222"/>
<text x="60" y="48.9" text-anchor="end" font-family="sans-serif" font-size="12">280</text>
<line x1="70" y1="44.9" x2="876" y2="44.9" stroke="#eee"/>
<circle cx="70.0" cy="367.7" r="2.6" fill="#111" opacity="0.75"/>
<circle cx="79.0" cy="348.1" r="2.6" fill="#111" opacity="0.75"/>
<circle cx="88.1" cy="368.1" r="2.6" fill="#111" opacity="0.75"/>
<circle cx="97.1" cy="341.4" r="2.6" fill="#111" opacity="0.75"/>
<circle cx="106.1" cy="288.5" r="2.6" fill="#111" opacity="0.75"/>
<circle cx="115.2" cy="244.3" r="2.6" fill="#111" opacity="0.75"/>
<circle cx="124.2" cy="221.7" r="2.6" fill="#111" opacity="0.75"/>
<circle cx="133.2" cy="212.5" r="2.6" fill="#111" opacity="0.75"/>
<circle cx="142.3" cy="230.1" r="2.6" fill="#111" opacity="0.75"/>
<circle cx="151.3" cy="204.6" r="2.6" fill="#111" opacity="0.75"/>
<circle cx="160.3" cy="193.8" r="2.6" fill="#111" opacity="0.75"/>
<circle cx="169.4" cy="175.0" r="2.6" fill="#111" opacity="0.75"/>
<circle cx="178.4" cy="162.5" r="2.6" fill="#111" opacity="0.75"/>
<circle cx="187.5" cy="157.5" r="2.6" fill="#111" opacity="0.75"/>
<circle cx="196.5" cy="133.3" r="2.6" fill="#111" opacity="0.75"/>
<circle cx="205.8" cy="132.5" r="2.6" fill="#111" opacity="0.75"/>
<circle cx="214.8" cy="119.1" r="2.6" fill="#111" opacity="0.75"/>
<circle cx="223.8" cy="99.9" r="2.6" fill="#111" opacity="0.75"/>
<circle cx="232.9" cy="99.9" r="2.6" fill="#111" opacity="0.75"/>
<circle cx="241.9" cy="103.7" r="2.6" fill="#111" opacity="0.75"/>
<circle cx="250.9" cy="109.9" r="2.6" fill="#111" opacity="0.75"/>
<circle cx="260.0" cy="108.7" r="2.6" fill="#111" opacity="0.75"/>
<circle cx="269.0" cy="106.2" r="2.6" fill="#111" opacity="0.75"/>
<circle cx="278.0" cy="106.6" r="2.6" fill="#111" opacity="0.75"/>
<circle cx="287.1" cy="119.9" r="2.6" fill="#111" opacity="0.75"/>
<circle cx="296.1" cy="124.9" r="2.6" fill="#111" opacity="0.75"/>
<circle cx="305.1" cy="131.6" r="2.6" fill="#111" opacity="0.75"/>
<circle cx="314.2" cy="136.2" r="2.6" fill="#111" opacity="0.75"/>
<circle cx="323.2" cy="135.0" r="2.6" fill="#111" opacity="0.75"/>
<circle cx="332.5" cy="131.6" r="2.6" fill="#111" opacity="0.75"/>
<circle cx="341.5" cy="117.0" r="2.6" fill="#111" opacity="0.75"/>
<circle cx="350.6" cy="102.8" r="2.6" fill="#111" opacity="0.75"/>
<circle cx="359.6" cy="86.6" r="2.6" fill="#111" opacity="0.75"/>
<circle cx="368.6" cy="87.4" r="2.6" fill="#111" opacity="0.75"/>
<circle cx="377.7" cy="90.3" r="2.6" fill="#111" opacity="0.75"/>
<circle cx="386.7" cy="92.8" r="2.6" fill="#111" opacity="0.75"/>
<circle cx="395.7" cy="115.8" r="2.6" fill="#111" opacity="0.75"/>
<circle cx="404.8" cy="140.4" r="2.6" fill="#111" opacity="0.75"/>
<circle cx="413.8" cy="152.9" r="2.6" fill="#111" opacity="0.75"/>
<circle cx="422.8" cy="162.1" r="2.6" fill="#111" opacity="0.75"/>
<circle cx="431.9" cy="172.1" r="2.6" fill="#111" opacity="0.75"/>
<circle cx="440.9" cy="187.9" r="2.6" fill="#111" opacity="0.75"/>
<circle cx="450.2" cy="196.3" r="2.6" fill="#111" opacity="0.75"/>
<circle cx="459.2" cy="187.1" r="2.6" fill="#111" opacity="0.75"/>
<circle cx="468.2" cy="202.1" r="2.6" fill="#111" opacity="0.75"/>
<circle cx="477.3" cy="215.1" r="2.6" fill="#111" opacity="0.75"/>
<circle cx="486.3" cy="213.8" r="2.6" fill="#111" opacity="0.75"/>
<circle cx="495.3" cy="228.0" r="2.6" fill="#111" opacity="0.75"/>
<circle cx="504.4" cy="237.6" r="2.6" fill="#111" opacity="0.75"/>
<circle cx="513.4" cy="240.5" r="2.6" fill="#111" opacity="0.75"/>
<circle cx="522.5" cy="253.0" r="2.6" fill="#111" opacity="0.75"/>
<circle cx="531.5" cy="244.7" r="2.6" fill="#111" opacity="0.75"/>
<circle cx="540.5" cy="258.9" r="2.6" fill="#111" opacity="0.75"/>
<circle cx="549.6" cy="257.2" r="2.6" fill="#111" opacity="0.75"/>
<circle cx="558.8" cy="262.2" r="2.6" fill="#111" opacity="0.75"/>
<circle cx="567.9" cy="266.4" r="2.6" fill="#111" opacity="0.75"/>
<circle cx="576.9" cy="273.9" r="2.6" fill="#111" opacity="0.75"/>
<circle cx="585.9" cy="272.6" r="2.6" fill="#111" opacity="0.75"/>
<circle cx="595.0" cy="252.2" r="2.6" fill="#111" opacity="0.75"/>
<circle cx="604.0" cy="257.6" r="2.6" fill="#111" opacity="0.75"/>
<circle cx="613.0" cy="253.8" r="2.6" fill="#111" opacity="0.75"/>
<circle cx="622.1" cy="253.0" r="2.6" fill="#111" opacity="0.75"/>
<circle cx="631.1" cy="254.3" r="2.6" fill="#111" opacity="0.75"/>
<circle cx="640.1" cy="251.8" r="2.6" fill="#111" opacity="0.75"/>
<circle cx="649.4" cy="249.7" r="2.6" fill="#111" opacity="0.75"/>
<circle cx="658.5" cy="254.3" r="2.6" fill="#111" opacity="0.75"/>
<circle cx="667.5" cy="258.4" r="2.6" fill="#111" opacity="0.75"/>
<circle cx="676.5" cy="218.8" r="2.6" fill="#111" opacity="0.75"/>
<circle cx="685.6" cy="196.7" r="2.6" fill="#111" opacity="0.75"/>
<circle cx="694.6" cy="181.3" r="2.6" fill="#111" opacity="0.75"/>
<circle cx="703.6" cy="179.2" r="2.6" fill="#111" opacity="0.75"/>
<circle cx="712.7" cy="176.7" r="2.6" fill="#111" opacity="0.75"/>
<circle cx="721.9" cy="177.9" r="2.6" fill="#111" opacity="0.75"/>
<circle cx="731.0" cy="192.9" r="2.6" fill="#111" opacity="0.75"/>
<circle cx="740.0" cy="193.4" r="2.6" fill="#111" opacity="0.75"/>
<circle cx="749.0" cy="204.6" r="2.6" fill="#111" opacity="0.75"/>
<circle cx="758.1" cy="221.3" r="2.6" fill="#111" opacity="0.75"/>
<circle cx="767.1" cy="221.7" r="2.6" fill="#111" opacity="0.75"/>
<circle cx="776.1" cy="191.3" r="2.6" fill="#111" opacity="0.75"/>
<circle cx="785.2" cy="178.8" r="2.6" fill="#111" opacity="0.75"/>
<circle cx="794.4" cy="143.7" r="2.6" fill="#111" opacity="0.75"/>
<circle cx="803.5" cy="155.4" r="2.6" fill="#111" opacity="0.75"/>
<circle cx="812.5" cy="193.8" r="2.6" fill="#111" opacity="0.75"/>
<circle cx="821.6" cy="172.9" r="2.6" fill="#111" opacity="0.75"/>
<circle cx="830.6" cy="146.2" r="2.6" fill="#111" opacity="0.75"/>
<circle cx="839.6" cy="149.1" r="2.6" fill="#111" opacity="0.75"/>
<circle cx="848.7" cy="82.0" r="2.6" fill="#111" opacity="0.75"/>
<circle cx="857.7" cy="87.4" r="2.6" fill="#111" opacity="0.75"/>
<circle cx="867.0" cy="135.8" r="2.6" fill="#111" opacity="0.75"/>
<circle cx="876.0" cy="65.3" r="2.6" fill="#111" opacity="0.75"/>
<polyline points="70.0,338.0 79.0,326.9 88.1,315.9 97.1,305.0 106.1,294.0 115.2,283.1 124.2,272.1 133.2,261.1 142.3,250.2 151.3,239.4 160.3,228.7 169.4,218.3 178.4,208.1 187.5,198.2 196.5,188.6 205.8,179.3 214.8,170.6 223.8,162.3 232.9,154.6 241.9,147.4 250.9,140.8 260.0,134.7 269.0,129.2 278.0,124.4 287.1,120.2 296.1,116.6 305.1,113.6 314.2,111.3 323.2,109.6 332.5,108.5 341.5,108.1 350.6,108.3 359.6,109.1 368.6,110.4 377.7,112.3 386.7,114.8 395.7,117.7 404.8,121.1 413.8,124.9 422.8,129.1 431.9,133.7 440.9,138.7 450.2,144.0 459.2,149.4 468.2,155.1 477.3,160.9 486.3,166.7 495.3,172.7 504.4,178.6 513.4,184.5 522.5,190.2 531.5,195.9 540.5,201.3 549.6,206.5 558.8,211.6 567.9,216.2 576.9,220.4 585.9,224.3 595.0,227.7 604.0,230.6 613.0,233.1 622.1,235.1 631.1,236.6 640.1,237.6 649.4,238.1 658.5,238.1 667.5,237.5 676.5,236.5 685.6,234.9 694.6,233.0 703.6,230.5 712.7,227.7 721.9,224.5 731.0,220.9 740.0,217.1 749.0,213.0 758.1,208.7 767.1,204.2 776.1,199.6 785.2,194.9 794.4,190.1 803.5,185.3 812.5,180.6 821.6,175.9 830.6,171.4 839.6,167.0 848.7,162.7 857.7,158.7 867.0,154.9 876.0,151.4" fill="none" stroke="#1f5fbf" stroke-width="2.5"/>
<polyline points="70.0,274.3 79.0,261.3 88.1,250.5 97.1,241.5 106.1,234.0 115.2,227.7 124.2,222.4 133.2,218.0 142.3,214.3 151.3,211.2 160.3,208.6 169.4,206.4 178.4,204.6 187.5,203.1 196.5,201.8 205.8,200.6 214.8,199.7 223.8,199.0 232.9,198.3 241.9,197.8 250.9,197.3 260.0,196.9 269.0,196.6 278.0,196.3 287.1,196.1 296.1,195.9 305.1,195.7 314.2,195.6 323.2,195.5 332.5,195.4 341.5,195.3 350.6,195.2 359.6,195.2 368.6,195.1 377.7,195.1 386.7,195.1 395.7,195.0 404.8,195.0 413.8,195.0 422.8,195.0 431.9,194.9 440.9,194.9 450.2,194.9 459.2,194.9 468.2,194.9 477.3,194.9 486.3,194.9 495.3,194.9 504.4,194.9 513.4,194.9 522.5,194.9 531.5,194.9 540.5,194.9 549.6,194.9 558.8,194.9 567.9,194.9 576.9,194.9 585.9,194.9 595.0,194.9 604.0,194.9 613.0,194.9 622.1,194.9 631.1,194.9 640.1,194.9 649.4,194.9 658.5,194.9 667.5,194.9 676.5,194.9 685.6,194.9 694.6,194.9 703.6,194.9 712.7,194.9 721.9,194.9 731.0,194.9 740.0,194.9 749.0,194.9 758.1,194.9 767.1,194.9 776.1,194.9 785.2,194.9 794.4,194.9 803.5,194.9 812.5,194.9 821.6,194.9 830.6,194.9 839.6,194.9 848.7,194.9 857.7,194.9 867.0,194.9 876.0,194.9" fill="none" stroke="#777777" stroke-width="2.5"/>
<polyline points="70.0,274.1 79.0,257.1 88.1,242.4 97.1,229.7 106.1,218.5 115.2,208.8 124.2,200.3 133.2,192.9 142.3,186.5 151.3,180.8 160.3,175.9 169.4,171.7 178.4,168.0 187.5,164.9 196.5,162.2 205.8,159.9 214.8,158.0 223.8,156.4 232.9,155.2 241.9,154.2 250.9,153.5 260.0,152.9 269.0,152.6 278.0,152.5 287.1,152.6 296.1,152.8 305.1,153.1 314.2,153.6 323.2,154.2 332.5,154.9 341.5,155.7 350.6,156.6 359.6,157.6 368.6,158.6 377.7,159.8 386.7,160.9 395.7,162.2 404.8,163.5 413.8,164.8 422.8,166.2 431.9,167.6 440.9,169.1 450.2,170.6 459.2,172.1 468.2,173.7 477.3,175.2 486.3,176.8 495.3,178.4 504.4,180.1 513.4,181.7 522.5,183.4 531.5,185.1 540.5,186.7 549.6,188.4 558.8,190.2 567.9,191.9 576.9,193.6 585.9,195.4 595.0,197.1 604.0,198.8 613.0,200.6 622.1,202.3 631.1,204.1 640.1,205.8 649.4,207.6 658.5,209.3 667.5,211.1 676.5,212.8 685.6,214.6 694.6,216.3 703.6,218.0 712.7,219.8 721.9,221.5 731.0,223.3 740.0,225.0 749.0,226.7 758.1,228.4 767.1,230.1 776.1,231.8 785.2,233.5 794.4,235.2 803.5,236.9 812.5,238.6 821.6,240.3 830.6,241.9 839.6,243.6 848.7,245.2 857.7,246.9 867.0,248.6 876.0,250.2" fill="none" stroke="#c53b3b" stroke-width="2.5"/>
<rect x="672" y="20" width="188" height="86" fill="white" stroke="#ccc"/>
<circle cx="690" cy="44" r="3" fill="#111"/>
<text x="708" y="48" font-family="sans-serif" font-size="13">data</text>
<line x1="682" y1="63" x2="698" y2="63" stroke="#1f5fbf" stroke-width="3"/>
<text x="708" y="67" font-family="sans-serif" font-size="13">SSV</text>
<line x1="682" y1="82" x2="698" y2="82" stroke="#777777" stroke-width="3"/>
<text x="708" y="86" font-family="sans-serif" font-size="13">smooth</text>
<line x1="682" y1="101" x2="698" y2="101" stroke="#c53b3b" stroke-width="3"/>
<text x="708" y="105" font-family="sans-serif" font-size="13">NFW shape</text>
</svg>
